<svg xmlns="http://www.w3.org/2000/svg" xmlns:xlink="http://www.w3.org/1999/xlink" id="Virtual_Reality" x="0" y="0" version="1.1" viewBox="0 0 1920 1080" xml:space="preserve" style="enable-background:new 0 0 1920 1080"><style type="text/css">.st0{opacity:.1;fill:#2a94f4}.st1{fill:#ffbe55}.st2{fill:#0b4870}.st3{fill:#fcd2b1}.st4{fill:#2a94f4}.st5{fill:#ffe3ca}.st6{fill:#7e92db}.st7{fill:#cce9ff}.st8{fill:#d3d3d3}</style><path d="M1374.5,763.3c0-94.3-182.7-112.4-94.8-185.2c87.9-72.7,141.7-212.5,38.3-258.8	c-103.5-46.3-219.7-76.5-189.9-128.7c29.8-52.2-214.9-239.3-351.9-140.1s1.3,238.7,7.3,249.8c6,11-86.2,173.7-178.3,65.4	s-259.6,135.4-79.6,186.2c53.5,15.1,138.9,84.2,73.6,179.3s84.8,276.6,297.5,175.6s278.6,104.2,383.2,21.6	C1346.6,875.7,1374.5,857.6,1374.5,763.3z" class="st0"/><ellipse cx="948.5" cy="989" class="st0" rx="423.1" ry="60.6"/><g><polygon points="1019.8 76 1007.3 67.5 992.6 78.3 1007.6 87" class="st1"/><circle cx="733.2" cy="192.3" r="65.7" class="st2"/><circle cx="740.7" cy="157.2" r="65.7" class="st2"/><circle cx="766.9" cy="181.4" r="57.1" class="st2"/><path d="M841.6,300.2c0,0,5.6-89.1,45-114.7s87.2-62.8,109.5-70l-7.4-20.9c0,0-116.8,41-139.1,70.1 S761.8,274,763.9,276.5C766.1,279,841.6,300.2,841.6,300.2z" class="st3"/><path d="M826.1,229.8l29,17.5c0,0-16.6,52.5-14.5,61.1l-60.8-39.3l5.6-33.4l23.1-21.8L826.1,229.8z" class="st4"/><path d="M640.3,474.6c0,0,66.5-32,82.2-87.5l-26-34c0,0-43,54.9-57.1,52C625.3,402.2,612.9,473.2,640.3,474.6z" class="st3"/><path d="M695.2,937.1l-19.3,19.5c-2.3,2.3-4.2,3.9-1.8,6.4l26.9,42.2c9.4,14.7,22.1,26.9,37.1,35.6h0 c5.5,3.2,12.4,2.5,17.1-1.8v0c7.7-6.9,9.6-18.4,3.8-26.9c-3.2-4.8-12.8-14.3-12.8-14.3s-22.8-16.4-9.6-24.1 c7.6-4.4-1.7-15.8-1.7-15.8l1.9-1.6c-6.1,6.1-16.6,4.7-22.1-2.9c-3.7-5.2-4.6-7.8-10-15.1C702.5,935,697.8,934.4,695.2,937.1z" class="st2"/><path d="M826.9,597.4c9.1-0.1,199.5,93.4,243.1,101.1c0,0-15.2,115.9,19.5,228.9l30.2-2.2c0,0,22.7-192.8,16.3-245.5 S968.1,535,968.1,535L826.9,597.4z" class="st1"/><path d="M948.5,555.8c0,0-16,215.5-46.3,289.1c-11.8,28.6-142.4,99.5-175,116.8c-4.3,2.3-9.6,1.4-12.9-2.2l-7.7-8.3 c-3.9-4.2-3.8-10.6,0.2-14.7c25.9-26.9,116.3-119.6,143.1-131.6c0,0-8.4-56.2-12.5-105c-4.1-48.8-39.6-104.9-39.6-104.9 S748.3,444.3,948.5,555.8z" class="st1"/><path d="M787.7,244.8l-0.5,37.7c-0.2,14.4-11.9,26-26.3,26h0c-12.8,0-22.5-11.4-20.5-24l6.4-39.9L787.7,244.8z" class="st3"/><path d="M764,272.1c0,0-50.1,20.6-53.6,46.3c-3.4,25.7,57.5,104.4,66.4,165.2s3.8,77,20.9,111.3 c0,0,101.9,12,148.1-17.1c15.6-9.8,33.7-26.6,32.3-36.9c-1.5-11-23.7-32.4-23.7-32.4s-97.2-154.3-107.7-195.1 C834.1,264.5,773,266.6,764,272.1z" class="st4"/><path d="M1077.5,923.7v27.4c0,3.2-0.2,5.8,3.3,5.8h111.8v-14.7c0,0-7-16.1-28.1-13.3c-21,2.8-17-7-27.7-18.3 c-6-6.4-16.1-2.8-16.1-2.8l0,0c0,8.6-8.5,15.1-17.7,13.5c-6.3-1.1-8.7-2.3-17.7-3.7C1081.2,917.1,1077.5,919.9,1077.5,923.7z" class="st2"/><path d="M770,126.7c0,0,40.9,17.7,50.6,79.8c9.7,62.1-50.8,58-73.6,39.4c0,0-10.9,5.6-21.5-4 c-10.6-9.6-22.9-35.5-1.5-35.1c0,0,10.7,3.3,15.1,10.1c4.5,6.8,18.4,15.4,12.9,1.8S707.1,149.8,770,126.7z" class="st5"/><path d="M637.5,333.4c0,0,3.1,73.5,14.4,112.1c8.7,29.5-37.2,51.1-50.1,10.9C589,416.2,624,324,624,324L637.5,333.4z" class="st5"/><path d="M624.8,342.4c0,0-5.5,5.1-9.1-6.1c-3.6-11.2-5-33-1.5-38.7c3.5-5.7,8.2-24.2,18.8-20.6 c10.6,3.6,9.3,12.7,7.9,20.8c-1.4,8.2-4.6,21.8-1.4,31.6C642.7,339.3,624.8,342.4,624.8,342.4z" class="st5"/><path d="M635.7,335.4c1.2,0.8,2.8,0.6,3.8-0.4c3.9-4,13.1-12.7,10.1-20.2c-1.2-3,0.4-8,0.2-10c-0.2-2-4.7-3.9-5.3,1.3 c-0.6,5.1-4.7,10.9-7.6,13.2c-2.4,1.9-5.7,8.7-5.7,8.7S627.7,329.7,635.7,335.4z" class="st5"/><path d="M988.7,94.5l13.5-6l19.9-14.1l0.7-0.2c7.8-2.7,16.3-2.1,23.6,1.8l1.2,0.6c6.5,3.5,10.6,10.2,10.6,17.6v0 c0,6.4-5.2,11.7-11.7,11.7h-7h-10.3l-33.1,9.6L988.7,94.5z" class="st3"/><path d="M714.1,308.5l-40.8,64.3l34.2,51.4c0,0,39-44.1,42.4-53.9C753.3,360.3,754.1,297.3,714.1,308.5z" class="st4"/><path d="M822.1,165" class="st6"/><path d="M815.8,182.5l-26.9,16.3l-28.3,15.8c-5.6,3.3-13,1.6-16.5-3.8l-13.4-20.3l75.7-44.2l13.4,20.2 C823.2,172,821.5,179.1,815.8,182.5z" class="st1"/><path d="M811.7,178.8l-7.3,4.3l-14.2,8.3L773,201.5c-4.6,2.7-10.6,1.3-13.4-3.1l-9.3-14.5l55.4-32.5l9.2,14.4 C817.8,170.3,816.3,176.1,811.7,178.8z" class="st7"/><path d="M730.6,190.5l-26.4,14.5l5.6,11.2c0,0,12.6-11.4,18.9-7.5c6.3,3.9,13.7-4.9,13.7-4.9l2.1-2.2L730.6,190.5z" class="st1"/><g><polygon points="1083.1 68.7 993.7 133.7 991.4 114.9 1065.3 61.2" class="st1"/><polygon points="1083.1 68.7 998.2 130.3 998 114.8 1069.5 63" class="st1"/><polygon points="1022.2 103.3 1359.5 269.4 1451 276.5 1416.9 239.9 1054.1 80" class="st8"/></g></g></svg>